<svg width="16" height="16" viewBox="0 0 16 16" fill="none" xmlns="http://www.w3.org/2000/svg">
<ellipse cx="2.05582" cy="2.39845" rx="2.05582" ry="2.39845" fill="url(#paint0_linear_3994_10015)"/>
<path d="M0 8.05191C0 6.91651 0.92042 5.99609 2.05582 5.99609V5.99609C3.19121 5.99609 4.11163 6.91651 4.11163 8.05191V13.7054C4.11163 14.8408 3.19121 15.7612 2.05582 15.7612V15.7612C0.92042 15.7612 0 14.8408 0 13.7054V8.05191Z" fill="url(#paint1_linear_3994_10015)"/>
<path d="M8.09415 14.1682C8.10858 15.1135 8.89566 15.8865 9.81556 15.6687C11.2665 15.3251 12.6025 14.5738 13.6568 13.4867C15.112 11.9864 15.9116 9.96954 15.8797 7.87971C15.8478 5.78988 14.987 3.79832 13.4867 2.34315C12.3997 1.28877 11.0414 0.57858 9.58063 0.279488C8.65451 0.0898617 7.89139 0.886544 7.90582 1.83176V1.83176C7.92025 2.77698 8.72488 3.5016 9.60666 3.84236C10.1595 4.05601 10.6696 4.37982 11.1033 4.80048C11.9518 5.62353 12.4387 6.74996 12.4567 7.93196C12.4748 9.11397 12.0225 10.2547 11.1995 11.1033C10.7788 11.537 10.2789 11.8762 9.73282 12.1067C8.86185 12.4742 8.07972 13.223 8.09415 14.1682V14.1682Z" fill="url(#paint2_linear_3994_10015)"/>
<defs>
<linearGradient id="paint0_linear_3994_10015" x1="2.05582" y1="0" x2="2.05582" y2="4.7969" gradientUnits="userSpaceOnUse">
<stop stop-color="#9650FA"/>
<stop offset="1" stop-color="#535EC6"/>
</linearGradient>
<linearGradient id="paint1_linear_3994_10015" x1="2.05582" y1="5.99609" x2="2.05582" y2="15.7612" gradientUnits="userSpaceOnUse">
<stop stop-color="#9650FA"/>
<stop offset="1" stop-color="#535EC6"/>
</linearGradient>
<linearGradient id="paint2_linear_3994_10015" x1="15.8797" y1="7.87971" x2="0.120274" y2="8.12029" gradientUnits="userSpaceOnUse">
<stop stop-color="#9650FA"/>
<stop offset="1" stop-color="#535EC6"/>
</linearGradient>
</defs>
</svg>
