<svg width="60" height="60" viewBox="0 0 60 60" fill="none" xmlns="http://www.w3.org/2000/svg">
<rect width="60" height="60" rx="20" fill="white"/>
<path d="M31 31C31 31.2652 30.8946 31.5196 30.7071 31.7071C30.5196 31.8946 30.2652 32 30 32C29.7348 32 29.4804 31.8946 29.2929 31.7071C29.1054 31.5196 29 31.2652 29 31C29 30.7348 29.1054 30.4804 29.2929 30.2929C29.4804 30.1054 29.7348 30 30 30C30.2652 30 30.5196 30.1054 30.7071 30.2929C30.8946 30.4804 31 30.7348 31 31ZM24 35C24.2652 35 24.5196 34.8946 24.7071 34.7071C24.8946 34.5196 25 34.2652 25 34C25 33.7348 24.8946 33.4804 24.7071 33.2929C24.5196 33.1054 24.2652 33 24 33C23.7348 33 23.4804 33.1054 23.2929 33.2929C23.1054 33.4804 23 33.7348 23 34C23 34.2652 23.1054 34.5196 23.2929 34.7071C23.4804 34.8946 23.7348 35 24 35ZM25 37C25 37.2652 24.8946 37.5196 24.7071 37.7071C24.5196 37.8946 24.2652 38 24 38C23.7348 38 23.4804 37.8946 23.2929 37.7071C23.1054 37.5196 23 37.2652 23 37C23 36.7348 23.1054 36.4804 23.2929 36.2929C23.4804 36.1054 23.7348 36 24 36C24.2652 36 24.5196 36.1054 24.7071 36.2929C24.8946 36.4804 25 36.7348 25 37ZM27 35C27.2652 35 27.5196 34.8946 27.7071 34.7071C27.8946 34.5196 28 34.2652 28 34C28 33.7348 27.8946 33.4804 27.7071 33.2929C27.5196 33.1054 27.2652 33 27 33C26.7348 33 26.4804 33.1054 26.2929 33.2929C26.1054 33.4804 26 33.7348 26 34C26 34.2652 26.1054 34.5196 26.2929 34.7071C26.4804 34.8946 26.7348 35 27 35ZM28 37C28 37.2652 27.8946 37.5196 27.7071 37.7071C27.5196 37.8946 27.2652 38 27 38C26.7348 38 26.4804 37.8946 26.2929 37.7071C26.1054 37.5196 26 37.2652 26 37C26 36.7348 26.1054 36.4804 26.2929 36.2929C26.4804 36.1054 26.7348 36 27 36C27.2652 36 27.5196 36.1054 27.7071 36.2929C27.8946 36.4804 28 36.7348 28 37ZM30 35C30.2652 35 30.5196 34.8946 30.7071 34.7071C30.8946 34.5196 31 34.2652 31 34C31 33.7348 30.8946 33.4804 30.7071 33.2929C30.5196 33.1054 30.2652 33 30 33C29.7348 33 29.4804 33.1054 29.2929 33.2929C29.1054 33.4804 29 33.7348 29 34C29 34.2652 29.1054 34.5196 29.2929 34.7071C29.4804 34.8946 29.7348 35 30 35ZM31 37C31 37.2652 30.8946 37.5196 30.7071 37.7071C30.5196 37.8946 30.2652 38 30 38C29.7348 38 29.4804 37.8946 29.2929 37.7071C29.1054 37.5196 29 37.2652 29 37C29 36.7348 29.1054 36.4804 29.2929 36.2929C29.4804 36.1054 29.7348 36 30 36C30.2652 36 30.5196 36.1054 30.7071 36.2929C30.8946 36.4804 31 36.7348 31 37ZM33 35C33.2652 35 33.5196 34.8946 33.7071 34.7071C33.8946 34.5196 34 34.2652 34 34C34 33.7348 33.8946 33.4804 33.7071 33.2929C33.5196 33.1054 33.2652 33 33 33C32.7348 33 32.4804 33.1054 32.2929 33.2929C32.1054 33.4804 32 33.7348 32 34C32 34.2652 32.1054 34.5196 32.2929 34.7071C32.4804 34.8946 32.7348 35 33 35ZM34 37C34 37.2652 33.8946 37.5196 33.7071 37.7071C33.5196 37.8946 33.2652 38 33 38C32.7348 38 32.4804 37.8946 32.2929 37.7071C32.1054 37.5196 32 37.2652 32 37C32 36.7348 32.1054 36.4804 32.2929 36.2929C32.4804 36.1054 32.7348 36 33 36C33.2652 36 33.5196 36.1054 33.7071 36.2929C33.8946 36.4804 34 36.7348 34 37ZM36 35C36.2652 35 36.5196 34.8946 36.7071 34.7071C36.8946 34.5196 37 34.2652 37 34C37 33.7348 36.8946 33.4804 36.7071 33.2929C36.5196 33.1054 36.2652 33 36 33C35.7348 33 35.4804 33.1054 35.2929 33.2929C35.1054 33.4804 35 33.7348 35 34C35 34.2652 35.1054 34.5196 35.2929 34.7071C35.4804 34.8946 35.7348 35 36 35ZM34 31C34 31.2652 33.8946 31.5196 33.7071 31.7071C33.5196 31.8946 33.2652 32 33 32C32.7348 32 32.4804 31.8946 32.2929 31.7071C32.1054 31.5196 32 31.2652 32 31C32 30.7348 32.1054 30.4804 32.2929 30.2929C32.4804 30.1054 32.7348 30 33 30C33.2652 30 33.5196 30.1054 33.7071 30.2929C33.8946 30.4804 34 30.7348 34 31ZM36 32C36.2652 32 36.5196 31.8946 36.7071 31.7071C36.8946 31.5196 37 31.2652 37 31C37 30.7348 36.8946 30.4804 36.7071 30.2929C36.5196 30.1054 36.2652 30 36 30C35.7348 30 35.4804 30.1054 35.2929 30.2929C35.1054 30.4804 35 30.7348 35 31C35 31.2652 35.1054 31.5196 35.2929 31.7071C35.4804 31.8946 35.7348 32 36 32Z" fill="#684DF0"/>
<path fill-rule="evenodd" clip-rule="evenodd" d="M23 17C23.2652 17 23.5196 17.1054 23.7071 17.2929C23.8946 17.4804 24 17.7348 24 18V20H36V18C36 17.7348 36.1054 17.4804 36.2929 17.2929C36.4804 17.1054 36.7348 17 37 17C37.2652 17 37.5196 17.1054 37.7071 17.2929C37.8946 17.4804 38 17.7348 38 18V20H39C40.0609 20 41.0783 20.4214 41.8284 21.1716C42.5786 21.9217 43 22.9391 43 24V39C43 40.0609 42.5786 41.0783 41.8284 41.8284C41.0783 42.5786 40.0609 43 39 43H21C19.9391 43 18.9217 42.5786 18.1716 41.8284C17.4214 41.0783 17 40.0609 17 39V24C17 22.9391 17.4214 21.9217 18.1716 21.1716C18.9217 20.4214 19.9391 20 21 20H22V18C22 17.7348 22.1054 17.4804 22.2929 17.2929C22.4804 17.1054 22.7348 17 23 17ZM41 29C41 28.4696 40.7893 27.9609 40.4142 27.5858C40.0391 27.2107 39.5304 27 39 27H21C20.4696 27 19.9609 27.2107 19.5858 27.5858C19.2107 27.9609 19 28.4696 19 29V39C19 39.5304 19.2107 40.0391 19.5858 40.4142C19.9609 40.7893 20.4696 41 21 41H39C39.5304 41 40.0391 40.7893 40.4142 40.4142C40.7893 40.0391 41 39.5304 41 39V29Z" fill="#684DF0"/>
</svg>
