<svg width="32" height="32" viewBox="0 0 32 32" fill="none" xmlns="http://www.w3.org/2000/svg">
<path d="M17 17C17 17.2652 16.8946 17.5196 16.7071 17.7071C16.5196 17.8946 16.2652 18 16 18C15.7348 18 15.4804 17.8946 15.2929 17.7071C15.1054 17.5196 15 17.2652 15 17C15 16.7348 15.1054 16.4804 15.2929 16.2929C15.4804 16.1054 15.7348 16 16 16C16.2652 16 16.5196 16.1054 16.7071 16.2929C16.8946 16.4804 17 16.7348 17 17ZM10 21C10.2652 21 10.5196 20.8946 10.7071 20.7071C10.8946 20.5196 11 20.2652 11 20C11 19.7348 10.8946 19.4804 10.7071 19.2929C10.5196 19.1054 10.2652 19 10 19C9.73478 19 9.48043 19.1054 9.29289 19.2929C9.10536 19.4804 9 19.7348 9 20C9 20.2652 9.10536 20.5196 9.29289 20.7071C9.48043 20.8946 9.73478 21 10 21ZM11 23C11 23.2652 10.8946 23.5196 10.7071 23.7071C10.5196 23.8946 10.2652 24 10 24C9.73478 24 9.48043 23.8946 9.29289 23.7071C9.10536 23.5196 9 23.2652 9 23C9 22.7348 9.10536 22.4804 9.29289 22.2929C9.48043 22.1054 9.73478 22 10 22C10.2652 22 10.5196 22.1054 10.7071 22.2929C10.8946 22.4804 11 22.7348 11 23ZM13 21C13.2652 21 13.5196 20.8946 13.7071 20.7071C13.8946 20.5196 14 20.2652 14 20C14 19.7348 13.8946 19.4804 13.7071 19.2929C13.5196 19.1054 13.2652 19 13 19C12.7348 19 12.4804 19.1054 12.2929 19.2929C12.1054 19.4804 12 19.7348 12 20C12 20.2652 12.1054 20.5196 12.2929 20.7071C12.4804 20.8946 12.7348 21 13 21ZM14 23C14 23.2652 13.8946 23.5196 13.7071 23.7071C13.5196 23.8946 13.2652 24 13 24C12.7348 24 12.4804 23.8946 12.2929 23.7071C12.1054 23.5196 12 23.2652 12 23C12 22.7348 12.1054 22.4804 12.2929 22.2929C12.4804 22.1054 12.7348 22 13 22C13.2652 22 13.5196 22.1054 13.7071 22.2929C13.8946 22.4804 14 22.7348 14 23ZM16 21C16.2652 21 16.5196 20.8946 16.7071 20.7071C16.8946 20.5196 17 20.2652 17 20C17 19.7348 16.8946 19.4804 16.7071 19.2929C16.5196 19.1054 16.2652 19 16 19C15.7348 19 15.4804 19.1054 15.2929 19.2929C15.1054 19.4804 15 19.7348 15 20C15 20.2652 15.1054 20.5196 15.2929 20.7071C15.4804 20.8946 15.7348 21 16 21ZM17 23C17 23.2652 16.8946 23.5196 16.7071 23.7071C16.5196 23.8946 16.2652 24 16 24C15.7348 24 15.4804 23.8946 15.2929 23.7071C15.1054 23.5196 15 23.2652 15 23C15 22.7348 15.1054 22.4804 15.2929 22.2929C15.4804 22.1054 15.7348 22 16 22C16.2652 22 16.5196 22.1054 16.7071 22.2929C16.8946 22.4804 17 22.7348 17 23ZM19 21C19.2652 21 19.5196 20.8946 19.7071 20.7071C19.8946 20.5196 20 20.2652 20 20C20 19.7348 19.8946 19.4804 19.7071 19.2929C19.5196 19.1054 19.2652 19 19 19C18.7348 19 18.4804 19.1054 18.2929 19.2929C18.1054 19.4804 18 19.7348 18 20C18 20.2652 18.1054 20.5196 18.2929 20.7071C18.4804 20.8946 18.7348 21 19 21ZM20 23C20 23.2652 19.8946 23.5196 19.7071 23.7071C19.5196 23.8946 19.2652 24 19 24C18.7348 24 18.4804 23.8946 18.2929 23.7071C18.1054 23.5196 18 23.2652 18 23C18 22.7348 18.1054 22.4804 18.2929 22.2929C18.4804 22.1054 18.7348 22 19 22C19.2652 22 19.5196 22.1054 19.7071 22.2929C19.8946 22.4804 20 22.7348 20 23ZM22 21C22.2652 21 22.5196 20.8946 22.7071 20.7071C22.8946 20.5196 23 20.2652 23 20C23 19.7348 22.8946 19.4804 22.7071 19.2929C22.5196 19.1054 22.2652 19 22 19C21.7348 19 21.4804 19.1054 21.2929 19.2929C21.1054 19.4804 21 19.7348 21 20C21 20.2652 21.1054 20.5196 21.2929 20.7071C21.4804 20.8946 21.7348 21 22 21ZM20 17C20 17.2652 19.8946 17.5196 19.7071 17.7071C19.5196 17.8946 19.2652 18 19 18C18.7348 18 18.4804 17.8946 18.2929 17.7071C18.1054 17.5196 18 17.2652 18 17C18 16.7348 18.1054 16.4804 18.2929 16.2929C18.4804 16.1054 18.7348 16 19 16C19.2652 16 19.5196 16.1054 19.7071 16.2929C19.8946 16.4804 20 16.7348 20 17ZM22 18C22.2652 18 22.5196 17.8946 22.7071 17.7071C22.8946 17.5196 23 17.2652 23 17C23 16.7348 22.8946 16.4804 22.7071 16.2929C22.5196 16.1054 22.2652 16 22 16C21.7348 16 21.4804 16.1054 21.2929 16.2929C21.1054 16.4804 21 16.7348 21 17C21 17.2652 21.1054 17.5196 21.2929 17.7071C21.4804 17.8946 21.7348 18 22 18Z" fill="#684DF0"/>
<path fill-rule="evenodd" clip-rule="evenodd" d="M9 3C9.26522 3 9.51957 3.10536 9.70711 3.29289C9.89464 3.48043 10 3.73478 10 4V6H22V4C22 3.73478 22.1054 3.48043 22.2929 3.29289C22.4804 3.10536 22.7348 3 23 3C23.2652 3 23.5196 3.10536 23.7071 3.29289C23.8946 3.48043 24 3.73478 24 4V6H25C26.0609 6 27.0783 6.42143 27.8284 7.17157C28.5786 7.92172 29 8.93913 29 10V25C29 26.0609 28.5786 27.0783 27.8284 27.8284C27.0783 28.5786 26.0609 29 25 29H7C5.93913 29 4.92172 28.5786 4.17157 27.8284C3.42143 27.0783 3 26.0609 3 25V10C3 8.93913 3.42143 7.92172 4.17157 7.17157C4.92172 6.42143 5.93913 6 7 6H8V4C8 3.73478 8.10536 3.48043 8.29289 3.29289C8.48043 3.10536 8.73478 3 9 3ZM27 15C27 14.4696 26.7893 13.9609 26.4142 13.5858C26.0391 13.2107 25.5304 13 25 13H7C6.46957 13 5.96086 13.2107 5.58579 13.5858C5.21071 13.9609 5 14.4696 5 15V25C5 25.5304 5.21071 26.0391 5.58579 26.4142C5.96086 26.7893 6.46957 27 7 27H25C25.5304 27 26.0391 26.7893 26.4142 26.4142C26.7893 26.0391 27 25.5304 27 25V15Z" fill="#684DF0"/>
</svg>
