<svg width="54" height="80" viewBox="0 0 54 80" fill="none" xmlns="http://www.w3.org/2000/svg">
<path d="M14.9732 28.6968C23.0059 28.6968 29.5177 22.5035 29.5177 14.8637C29.5177 7.22388 23.0059 1.03058 14.9732 1.03058C6.9405 1.03058 0.428711 7.22388 0.428711 14.8637C0.428711 22.5035 6.9405 28.6968 14.9732 28.6968Z" fill="#E4E4E4"/>
<path d="M14.9734 26.3911C21.6673 26.3911 27.0938 21.2301 27.0938 14.8635C27.0938 8.49702 21.6673 3.33594 14.9734 3.33594C8.27952 3.33594 2.85303 8.49702 2.85303 14.8635C2.85303 21.2301 8.27952 26.3911 14.9734 26.3911Z" fill="#4430A8"/>
<path d="M13.9432 19.0326C13.9215 19.0326 13.8998 19.0321 13.8781 19.0311C13.6864 19.0223 13.499 18.9741 13.3287 18.89C13.1584 18.8058 13.0093 18.6876 12.8915 18.5435L11.0323 16.27C10.8158 16.0047 10.7188 15.6685 10.7626 15.3352C10.8064 15.002 10.9874 14.6988 11.2659 14.4923L11.3328 14.4428C11.6118 14.2369 11.9653 14.1447 12.3157 14.1863C12.6661 14.228 12.9848 14.4001 13.202 14.6649C13.3068 14.7931 13.4394 14.8982 13.5909 14.973C13.7424 15.0479 13.909 15.0907 14.0795 15.0986C14.25 15.1066 14.4203 15.0793 14.5787 15.0188C14.737 14.9583 14.8798 14.866 14.9972 14.7482L18.7724 10.958C18.8927 10.8372 19.0368 10.7402 19.1965 10.6724C19.3563 10.6046 19.5285 10.5674 19.7034 10.5629C19.8782 10.5584 20.0523 10.5867 20.2157 10.6462C20.379 10.7057 20.5285 10.7952 20.6554 10.9097L20.7171 10.9652C20.9735 11.1963 21.1229 11.5148 21.1324 11.8506C21.142 12.1865 21.0108 12.5122 20.7679 12.756L14.9099 18.637C14.7855 18.7619 14.6356 18.8615 14.4694 18.9295C14.3032 18.9975 14.1241 19.0326 13.9432 19.0326Z" fill="white"/>
<path d="M47.2135 12.0629H37.6403V4.14437C37.6501 3.65408 37.864 3.1875 38.2349 2.84692C38.6059 2.50634 39.1037 2.31956 39.6193 2.32751H42.8014C45.2343 2.32751 47.2135 4.14457 47.2135 6.37803V12.0629Z" fill="#2F2E41"/>
<path d="M50.7578 78.3243L48.9405 78.3242L48.0758 71.6572L50.7581 71.6574L50.7578 78.3243Z" fill="#FFB6B6"/>
<path d="M51.2209 80L45.361 79.9998V79.9293C45.361 79.354 45.6013 78.8022 46.0291 78.3954C46.4568 77.9886 47.0369 77.76 47.6418 77.76L51.2211 77.7601L51.2209 80Z" fill="#2F2E41"/>
<path d="M34.0063 78.3243L32.1889 78.3242L31.3243 71.6572L34.0066 71.6574L34.0063 78.3243Z" fill="#FFB6B6"/>
<path d="M34.4702 80L28.6102 79.9998V79.9293C28.6103 79.354 28.8506 78.8022 29.2783 78.3954C29.7061 77.9886 30.2862 77.76 30.8911 77.76L34.4703 77.7601L34.4702 80Z" fill="#2F2E41"/>
<path d="M36.2009 24.7629L35.015 31.9534L46.2811 32.0943L44.7987 25.186L36.2009 24.7629Z" fill="#FFB6B6"/>
<path d="M35.342 30.1975L31.7538 39.2846L31.3091 76.9429H34.348L41.6117 46.6865L48.2824 76.153H51.2471L49.1718 43.0208C49.1718 43.0208 49.7838 36.3707 46.6518 32.4467L45.8894 30.3518L35.342 30.1975Z" fill="#4430A8"/>
<path d="M50.7334 37.2815C50.4197 37.2002 50.1286 37.0544 49.8806 36.8545C49.6325 36.6546 49.4335 36.4055 49.2977 36.1245C49.1618 35.8436 49.0924 35.5377 49.0943 35.2285C49.0961 34.9193 49.1693 34.6142 49.3085 34.3348L44.5157 19.4734L48.041 18.8088L52.4245 33.376C52.9025 33.6296 53.2662 34.0412 53.4465 34.5328C53.6268 35.0243 53.6113 35.5617 53.4028 36.0431C53.1944 36.5245 52.8075 36.9165 52.3155 37.1447C51.8235 37.3729 51.2606 37.4216 50.7334 37.2815Z" fill="#FFB6B6"/>
<path d="M44.3906 28.734L36.6245 28.5914C36.4026 28.5869 36.1883 28.5133 36.0145 28.3819C35.8406 28.2506 35.7169 28.0686 35.6622 27.864C35.2459 26.2962 34.3299 22.2105 34.8158 18.1412C34.9116 17.3529 35.1728 16.5908 35.5838 15.9002C35.9947 15.2096 36.5472 14.6043 37.2084 14.1203C37.8696 13.6363 38.6262 13.2833 39.4334 13.0823C40.2406 12.8813 41.0819 12.8363 41.9077 12.9499C42.7788 13.0685 43.6137 13.361 44.3576 13.8081C45.1016 14.2552 45.7377 14.8468 46.2243 15.5442C46.7109 16.2415 47.0369 17.0289 47.1811 17.8545C47.3252 18.6802 47.2842 19.5255 47.0607 20.335C46.0832 23.8658 45.531 26.3917 45.4195 27.8429C45.403 28.0527 45.3148 28.2516 45.1683 28.4092C45.0217 28.5668 44.825 28.6745 44.6081 28.7158C44.5435 28.728 44.4779 28.7341 44.4122 28.7342C44.4049 28.7342 44.3978 28.7341 44.3906 28.734Z" fill="#E4E4E4"/>
<path d="M20.8011 15.6799C20.8477 15.7794 20.8861 15.8823 20.9157 15.9875L30.6366 19.1292L32.5149 17.5685L35.3619 19.9568L32.3189 23.027C32.0731 23.275 31.7493 23.4405 31.3962 23.4986C31.043 23.5568 30.6796 23.5044 30.3604 23.3493L19.9585 18.2959C19.5824 18.5153 19.1449 18.6207 18.7042 18.5979C18.2636 18.5751 17.8407 18.4252 17.4918 18.1682C17.1429 17.9113 16.8845 17.5594 16.751 17.1593C16.6175 16.7593 16.6152 16.3301 16.7445 15.9287C16.8737 15.5274 17.1284 15.1731 17.4745 14.9128C17.8207 14.6525 18.242 14.4986 18.6824 14.4716C19.1228 14.4446 19.5614 14.5457 19.9398 14.7615C20.3183 14.9774 20.6187 15.2977 20.8011 15.6799Z" fill="#FFB6B6"/>
<path d="M30.6564 18.6282C30.6571 18.5009 30.6868 18.3753 30.7433 18.2598C30.7997 18.1444 30.8817 18.0419 30.9837 17.9593L34.543 15.0757C34.9934 14.5848 35.6302 14.2838 36.3136 14.2388C36.997 14.1938 37.6713 14.4084 38.1886 14.8356C38.7059 15.2627 39.0239 15.8676 39.073 16.5175C39.122 17.1674 38.898 17.8092 38.4501 18.3023L35.9155 22.0562C35.8431 22.1633 35.7473 22.2544 35.6347 22.3231C35.522 22.3919 35.3951 22.4367 35.2625 22.4546C35.13 22.4725 34.9949 22.463 34.8666 22.4268C34.7382 22.3906 34.6196 22.3285 34.5188 22.2447L30.9751 19.301C30.8742 19.2173 30.7935 19.1138 30.7385 18.9977C30.6835 18.8816 30.6555 18.7556 30.6564 18.6282Z" fill="#E4E4E4"/>
<path d="M44.3007 23.238C44.1822 23.1787 44.0786 23.0958 43.9969 22.995C43.9151 22.8941 43.8572 22.7777 43.8271 22.6536L42.7748 18.3208C42.5241 17.7145 42.5365 17.0384 42.8092 16.4408C43.0819 15.8431 43.5927 15.3728 44.2295 15.1328C44.8663 14.8928 45.5772 14.9028 46.2063 15.1605C46.8353 15.4183 47.3313 15.9029 47.5853 16.5079L49.9218 20.3764C49.9884 20.4868 50.0293 20.6096 50.0416 20.7364C50.0539 20.8632 50.0373 20.991 49.993 21.1111C49.9486 21.2313 49.8776 21.3409 49.7847 21.4326C49.6918 21.5243 49.5792 21.5958 49.4546 21.6424L45.0754 23.2786C44.9508 23.3253 44.8171 23.3458 44.6834 23.3387C44.5497 23.3317 44.4192 23.2973 44.3007 23.238Z" fill="#E4E4E4"/>
<path d="M48.0685 3.10088C48.4281 2.30026 47.8097 1.28159 46.6873 0.825599C45.5649 0.369608 44.3636 0.648975 44.004 1.44959C43.6444 2.2502 44.2628 3.26888 45.3852 3.72488C46.5075 4.18087 47.7089 3.90149 48.0685 3.10088Z" fill="#2F2E41"/>
<path d="M44.5865 9.05218C45.7872 6.96314 44.98 4.34389 42.7835 3.20192C40.5871 2.05994 37.8331 2.8277 36.6324 4.91674C35.4317 7.00578 36.239 9.62503 38.4354 10.767C40.6319 11.909 43.3858 11.1412 44.5865 9.05218Z" fill="#FFB6B6"/>
<path d="M43.0963 2.04767H37.9119C37.5318 2.04299 37.1639 2.17515 36.882 2.41765C36.6001 2.66014 36.425 2.99504 36.3918 3.35518C36.3784 3.54657 36.4065 3.73853 36.4742 3.91918C36.542 4.09983 36.6481 4.26532 36.7859 4.40539C36.9237 4.54545 37.0902 4.65712 37.2752 4.73346C37.4602 4.8098 37.6598 4.8492 37.8614 4.8492C38.252 4.8492 38.6267 4.99678 38.9029 5.25948C39.1791 5.52217 39.3342 5.87847 39.3342 6.24997V11.9931H47.4346V6.17386C47.4346 5.632 47.3224 5.09545 47.1044 4.59484C46.8864 4.09422 46.5668 3.63935 46.164 3.2562C45.7611 2.87305 45.2828 2.56911 44.7565 2.36175C44.2301 2.15439 43.666 2.04767 43.0963 2.04767Z" fill="#2F2E41"/>
</svg>
