<svg width="60" height="60" viewBox="0 0 60 60" fill="none" xmlns="http://www.w3.org/2000/svg">
<rect width="60" height="60" rx="20" fill="white"/>
<path d="M36.4 38.5432V41.7037H14V38.5432C14 38.5432 14 32.2223 25.2 32.2223C36.4 32.2223 36.4 38.5432 36.4 38.5432ZM30.8 23.5309C30.8 22.437 30.4716 21.3677 29.8562 20.4582C29.2409 19.5486 28.3663 18.8397 27.343 18.4211C26.3198 18.0025 25.1938 17.8929 24.1075 18.1064C23.0212 18.3198 22.0234 18.8465 21.2402 19.62C20.457 20.3935 19.9237 21.379 19.7076 22.4519C19.4915 23.5248 19.6024 24.6369 20.0263 25.6475C20.4501 26.6581 21.1679 27.5219 22.0888 28.1297C23.0097 28.7374 24.0924 29.0618 25.2 29.0618C26.6852 29.0618 28.1096 28.4791 29.1598 27.4418C30.21 26.4046 30.8 24.9978 30.8 23.5309ZM36.304 32.2223C37.2876 32.9741 38.0924 33.9296 38.6619 35.0217C39.2313 36.1137 39.5515 37.3158 39.6 38.5432V41.7037H46V38.5432C46 38.5432 46 32.8069 36.304 32.2223ZM34.8 18.0001C33.6987 17.994 32.6216 18.3192 31.712 18.9324C32.6839 20.2736 33.2065 21.8816 33.2065 23.5309C33.2065 25.1802 32.6839 26.7882 31.712 28.1294C32.6216 28.7426 33.6987 29.0678 34.8 29.0618C36.2852 29.0618 37.7096 28.4791 38.7598 27.4418C39.81 26.4046 40.4 24.9978 40.4 23.5309C40.4 22.0641 39.81 20.6573 38.7598 19.62C37.7096 18.5828 36.2852 18.0001 34.8 18.0001Z" fill="#684DF0"/>
</svg>
