<svg width="60" height="60" viewBox="0 0 60 60" fill="none" xmlns="http://www.w3.org/2000/svg">
<rect width="60" height="60" rx="20" fill="white"/>
<path d="M37.375 20.2025L39.2775 18.2987C39.3512 18.23 39.4103 18.1472 39.4513 18.0552C39.4923 17.9632 39.5143 17.8639 39.5161 17.7632C39.5179 17.6625 39.4993 17.5625 39.4616 17.4691C39.4239 17.3757 39.3678 17.2909 39.2965 17.2197C39.2253 17.1485 39.1405 17.0923 39.0471 17.0546C38.9537 17.0169 38.8537 16.9983 38.753 17.0001C38.6523 17.0019 38.553 17.0239 38.461 17.0649C38.369 17.1059 38.2862 17.165 38.2175 17.2387L36.25 19.2112C34.3823 17.7871 32.0987 17.0158 29.75 17.0158C27.4013 17.0158 25.1177 17.7871 23.25 19.2112L21.28 17.2387C21.1378 17.1062 20.9498 17.0341 20.7555 17.0375C20.5612 17.041 20.3758 17.1197 20.2384 17.2571C20.101 17.3945 20.0223 17.5799 20.0188 17.7742C20.0154 17.9685 20.0875 18.1565 20.22 18.2987L22.125 20.2025C20.1228 22.2114 18.9989 24.9324 19 27.7687V32.7687C19 35.6198 20.1326 38.3541 22.1486 40.3701C24.1646 42.3861 26.8989 43.5187 29.75 43.5187C32.6011 43.5187 35.3354 42.3861 37.3514 40.3701C39.3674 38.3541 40.5 35.6198 40.5 32.7687V27.7687C40.5011 24.9324 39.3772 22.2114 37.375 20.2025ZM29.75 18.5187C32.2023 18.5217 34.5534 19.4972 36.2874 21.2313C38.0215 22.9653 38.997 25.3164 39 27.7687V29.0187H20.5V27.7687C20.503 25.3164 21.4785 22.9653 23.2126 21.2313C24.9466 19.4972 27.2977 18.5217 29.75 18.5187ZM29.75 42.0187C27.2977 42.0157 24.9466 41.0402 23.2126 39.3062C21.4785 37.5721 20.503 35.221 20.5 32.7687V30.5187H39V32.7687C38.997 35.221 38.0215 37.5721 36.2874 39.3062C34.5534 41.0402 32.2023 42.0157 29.75 42.0187ZM32 25.2687C32 25.0215 32.0733 24.7798 32.2107 24.5742C32.348 24.3687 32.5432 24.2085 32.7716 24.1139C33.0001 24.0192 33.2514 23.9945 33.4939 24.0427C33.7363 24.091 33.9591 24.21 34.1339 24.3848C34.3087 24.5596 34.4278 24.7824 34.476 25.0248C34.5242 25.2673 34.4995 25.5187 34.4049 25.7471C34.3102 25.9755 34.15 26.1707 33.9445 26.308C33.7389 26.4454 33.4972 26.5187 33.25 26.5187C32.9185 26.5187 32.6005 26.387 32.3661 26.1526C32.1317 25.9182 32 25.6002 32 25.2687ZM25 25.2687C25 25.0215 25.0733 24.7798 25.2107 24.5742C25.348 24.3687 25.5432 24.2085 25.7716 24.1139C26.0001 24.0192 26.2514 23.9945 26.4939 24.0427C26.7363 24.091 26.9591 24.21 27.1339 24.3848C27.3087 24.5596 27.4278 24.7824 27.476 25.0248C27.5242 25.2673 27.4995 25.5187 27.4049 25.7471C27.3102 25.9755 27.15 26.1707 26.9445 26.308C26.7389 26.4454 26.4972 26.5187 26.25 26.5187C25.9185 26.5187 25.6005 26.387 25.3661 26.1526C25.1317 25.9182 25 25.6002 25 25.2687Z" fill="#684DF0"/>
</svg>
