<svg width="40" height="41" viewBox="0 0 40 41" fill="none" xmlns="http://www.w3.org/2000/svg">
<path d="M3.75 26.75L12.3483 18.1517C12.6966 17.8034 13.11 17.5272 13.5649 17.3388C14.0199 17.1503 14.5075 17.0533 15 17.0533C15.4925 17.0533 15.9801 17.1503 16.4351 17.3388C16.89 17.5272 17.3034 17.8034 17.6517 18.1517L26.25 26.75M23.75 24.25L26.0983 21.9017C26.4466 21.5534 26.86 21.2772 27.3149 21.0888C27.7699 20.9003 28.2575 20.8033 28.75 20.8033C29.2425 20.8033 29.7301 20.9003 30.1851 21.0888C30.64 21.2772 31.0534 21.5534 31.4017 21.9017L36.25 26.75M6.25 33H33.75C34.413 33 35.0489 32.7366 35.5178 32.2678C35.9866 31.7989 36.25 31.163 36.25 30.5V10.5C36.25 9.83696 35.9866 9.20107 35.5178 8.73223C35.0489 8.26339 34.413 8 33.75 8H6.25C5.58696 8 4.95107 8.26339 4.48223 8.73223C4.01339 9.20107 3.75 9.83696 3.75 10.5V30.5C3.75 31.163 4.01339 31.7989 4.48223 32.2678C4.95107 32.7366 5.58696 33 6.25 33ZM23.75 14.25H23.7633V14.2633H23.75V14.25ZM24.375 14.25C24.375 14.4158 24.3092 14.5747 24.1919 14.6919C24.0747 14.8092 23.9158 14.875 23.75 14.875C23.5842 14.875 23.4253 14.8092 23.3081 14.6919C23.1908 14.5747 23.125 14.4158 23.125 14.25C23.125 14.0842 23.1908 13.9253 23.3081 13.8081C23.4253 13.6908 23.5842 13.625 23.75 13.625C23.9158 13.625 24.0747 13.6908 24.1919 13.8081C24.3092 13.9253 24.375 14.0842 24.375 14.25Z" stroke="#8C8A8F" stroke-width="2" stroke-linecap="round" stroke-linejoin="round"/>
</svg>
