<svg width="89" height="80" viewBox="0 0 89 80" fill="none" xmlns="http://www.w3.org/2000/svg">
<path d="M34.172 60.1598L35.5552 61.3291L40.7777 56.3758L38.7362 54.6501L34.172 60.1598Z" fill="#FFB6B6"/>
<path d="M38.2644 59.7649L35.3351 57.7224L43.048 45.3696C37.4578 42.0873 33.6134 38.0832 30.4766 33.685C29.4105 32.2006 28.7607 30.4732 30.2479 29.3597C30.3174 29.3076 30.3888 29.2583 30.462 29.2118C32.1578 28.1443 31.6074 29.7441 33.9319 28.9584L36.0323 31.2217L40.5702 35.6821L48.3106 40.6734C49.8672 41.6772 50.2991 43.7885 49.2753 45.3892C49.2213 45.4738 49.1637 45.5558 49.1026 45.6355L38.2644 59.7649Z" fill="#2F2E41"/>
<path d="M34.3488 59.2075L36.7741 61.021L35.9459 62.0208L36.8727 65.4095C36.9185 65.5769 36.9101 65.7547 36.8488 65.9169C36.7875 66.0791 36.6765 66.2173 36.5319 66.3112C36.3874 66.4052 36.2169 66.45 36.0453 66.4392C35.8738 66.4283 35.7101 66.3624 35.5783 66.2509L32.8282 63.926L33.1735 62.5364L32.1691 63.3688L31.1322 62.4922L34.3488 59.2075Z" fill="#2F2E41"/>
<path d="M30.963 46.8652L16.0033 52.2692L16.4368 53.4938L31.3965 48.0898L30.963 46.8652Z" fill="#3F3D56"/>
<path d="M34.4627 67.7699L30.5648 64.3701C30.2936 64.1334 30.1265 63.7975 30.1004 63.4364C30.0743 63.0753 30.1912 62.7184 30.4254 62.4444C30.6597 62.1703 30.9921 62.0015 31.3496 61.9749C31.7071 61.9484 32.0603 62.0664 32.3317 62.3029L36.2296 65.7027C36.3641 65.8199 36.4743 65.9627 36.5542 66.1229C36.634 66.2832 36.6817 66.4577 36.6947 66.6366C36.7078 66.8155 36.6858 66.9952 36.63 67.1655C36.5742 67.3358 36.4858 67.4934 36.3697 67.6291C36.2537 67.7649 36.1123 67.8762 35.9536 67.9568C35.795 68.0374 35.6222 68.0856 35.4451 68.0986C35.268 68.1117 35.0901 68.0894 34.9215 68.033C34.7529 67.9766 34.597 67.8872 34.4627 67.7699Z" fill="#3F3D56"/>
<path d="M56.6032 28.4906C56.3569 28.5765 56.0949 28.6067 55.8358 28.5792C55.5766 28.5517 55.3266 28.4671 55.1033 28.3314C54.88 28.1958 54.6889 28.0123 54.5434 27.7939C54.3979 27.5756 54.3015 27.3276 54.2611 27.0676L40.3367 23.4456L42.6076 21.0386L55.8698 24.9724C56.3068 24.9329 56.7429 25.0566 57.0956 25.3201C57.4483 25.5837 57.6931 25.9688 57.7835 26.4025C57.8739 26.8361 57.8037 27.2882 57.5861 27.6731C57.3686 28.058 57.0189 28.3488 56.6032 28.4906Z" fill="#FFB6B6"/>
<path d="M35.4504 11.6738C35.4504 11.6738 33.1863 11.9388 33.227 14.5744C33.2677 17.21 38.8178 23.214 39.6837 24.2088C40.5496 25.2035 49.1908 25.7118 49.1908 25.7118L51.8902 23.3141L43.8863 20.59L35.4504 11.6738Z" fill="#6532AD"/>
<path d="M30.8591 24.0443L30.3483 26.4644C30.3483 26.4644 29.4188 28.4785 29.5992 29.0167C29.7779 29.5519 37.8238 32.4612 37.8238 32.4612C37.8238 32.4612 38.5132 28.8322 39.6635 26.3843L30.8591 24.0443Z" fill="#FFB6B6"/>
<path d="M56.6448 61.8959L51.9981 64.1385C51.6746 64.2947 51.3029 64.3146 50.9649 64.1939C50.6268 64.0732 50.3501 63.8218 50.1955 63.495C50.041 63.1682 50.0213 62.7928 50.1407 62.4513C50.2602 62.1099 50.509 61.8303 50.8326 61.6742L55.4793 59.4316C55.8028 59.2754 56.1745 59.2555 56.5125 59.3762C56.8506 59.4969 57.1273 59.7483 57.2819 60.0751C57.4364 60.4019 57.4561 60.7773 57.3367 61.1188C57.2172 61.4602 56.9684 61.7398 56.6448 61.8959Z" fill="#3F3D56"/>
<path d="M74.2696 79.7984C71.3672 79.7984 68.5301 78.929 66.1169 77.3001C63.7037 75.6713 61.8228 73.3561 60.7121 70.6475C59.6015 67.9388 59.3108 64.9582 59.8771 62.0827C60.4433 59.2072 61.8409 56.5659 63.8932 54.4928C65.9454 52.4196 68.5602 51.0078 71.4067 50.4358C74.2533 49.8639 77.2038 50.1574 79.8853 51.2794C82.5667 52.4014 84.8585 54.3014 86.471 56.7391C88.0834 59.1768 88.944 62.0428 88.944 64.9747C88.9397 68.9048 87.3922 72.6727 84.6411 75.4517C81.8901 78.2307 78.1601 79.7939 74.2696 79.7984ZM74.2696 51.5236C71.636 51.5236 69.0615 52.3125 66.8717 53.7905C64.682 55.2685 62.9753 57.3693 61.9674 59.8272C60.9596 62.285 60.6959 64.9896 61.2097 67.5989C61.7235 70.2081 62.9917 72.6049 64.8539 74.4861C66.7162 76.3672 69.0888 77.6483 71.6718 78.1673C74.2548 78.6864 76.9322 78.42 79.3653 77.4019C81.7984 76.3838 83.878 74.6597 85.3412 72.4477C86.8043 70.2357 87.5853 67.6351 87.5853 64.9747C87.5813 61.4085 86.1771 57.9895 83.6808 55.4678C81.1845 52.9461 77.7999 51.5276 74.2696 51.5236Z" fill="#3F3D56"/>
<path d="M74.9176 68.0931C76.0553 68.0931 76.9776 67.1615 76.9776 66.0122C76.9776 64.863 76.0553 63.9313 74.9176 63.9313C73.7799 63.9313 72.8577 64.863 72.8577 66.0122C72.8577 67.1615 73.7799 68.0931 74.9176 68.0931Z" fill="#3F3D56"/>
<path d="M13.9605 79.9999C11.2105 79.9999 8.52214 79.1762 6.23554 77.6328C3.94894 76.0894 2.16675 73.8957 1.11434 71.3291C0.0619321 68.7626 -0.213425 65.9384 0.323088 63.2137C0.859601 60.4891 2.18389 57.9863 4.12848 56.0219C6.07308 54.0576 8.55064 52.7198 11.2479 52.1779C13.9451 51.6359 16.7409 51.914 19.2816 52.9772C21.8223 54.0403 23.9939 55.8406 25.5218 58.1504C27.0497 60.4603 27.8651 63.1759 27.8651 65.954C27.861 69.6779 26.3947 73.2481 23.788 75.8813C21.1813 78.5145 17.647 79.9957 13.9605 79.9999ZM13.9605 53.2085C11.4651 53.2085 9.02569 53.956 6.95081 55.3565C4.87594 56.757 3.25876 58.7476 2.3038 61.0765C1.34884 63.4054 1.09898 65.9681 1.58582 68.4405C2.07265 70.9128 3.27432 73.1839 5.03886 74.9663C6.8034 76.7488 9.05156 77.9627 11.499 78.4545C13.9465 78.9463 16.4834 78.6939 18.7889 77.7292C21.0944 76.7645 23.0649 75.1309 24.4513 73.0349C25.8377 70.939 26.5777 68.4748 26.5777 65.954C26.5739 62.5748 25.2434 59.3352 22.878 56.9458C20.5127 54.5564 17.3056 53.2123 13.9605 53.2085Z" fill="#3F3D56"/>
<path d="M13.9617 68.0349C15.0994 68.0349 16.0216 67.1033 16.0216 65.9541C16.0216 64.8048 15.0994 63.8732 13.9617 63.8732C12.824 63.8732 11.9017 64.8048 11.9017 65.9541C11.9017 67.1033 12.824 68.0349 13.9617 68.0349Z" fill="#3F3D56"/>
<path d="M41.8976 68.1062C43.2168 68.1062 44.2863 67.0259 44.2863 65.6932C44.2863 64.3606 43.2168 63.2803 41.8976 63.2803C40.5784 63.2803 39.5089 64.3606 39.5089 65.6932C39.5089 67.0259 40.5784 68.1062 41.8976 68.1062Z" fill="#3F3D56"/>
<path d="M14.4904 65.8069L13.551 64.9174L30.3183 46.8484L60.2405 37.8022L75.0908 64.1298L73.9722 64.7737L59.6289 39.3448L31.0202 47.9938L14.4904 65.8069Z" fill="#3F3D56"/>
<path d="M39.8689 64.9854H27.2167V66.286H39.8689V64.9854Z" fill="#3F3D56"/>
<path d="M31.313 40.6202H30.0255V47.42H31.313V40.6202Z" fill="#3F3D56"/>
<path d="M56.3466 25.235L55.1215 25.6347L59.3216 38.773L60.5467 38.3734L56.3466 25.235Z" fill="#3F3D56"/>
<path d="M31.183 46.5648L30.072 47.2221L40.6292 65.4299L41.7402 64.7725L31.183 46.5648Z" fill="#3F3D56"/>
<path d="M65.9279 49.2176L43.2695 64.8257L43.9949 65.9002L66.6532 50.2921L65.9279 49.2176Z" fill="#3F3D56"/>
<path d="M33.1387 41.4308H27.9888C27.6303 41.4308 27.2864 41.2869 27.0329 41.0308C26.7794 40.7747 26.637 40.4274 26.637 40.0652C26.637 39.7031 26.7794 39.3557 27.0329 39.0996C27.2864 38.8435 27.6303 38.6996 27.9888 38.6996H33.1387C33.4972 38.6996 33.841 38.8435 34.0946 39.0996C34.3481 39.3557 34.4905 39.7031 34.4905 40.0652C34.4905 40.4274 34.3481 40.7747 34.0946 41.0308C33.841 41.2869 33.4972 41.4308 33.1387 41.4308Z" fill="#6532AD"/>
<path d="M58.2455 26.7344H53.0956C52.7371 26.7344 52.3932 26.5905 52.1397 26.3344C51.8862 26.0783 51.7438 25.731 51.7438 25.3688C51.7438 25.0066 51.8862 24.6593 52.1397 24.4032C52.3932 24.1471 52.7371 24.0032 53.0956 24.0032H58.2455C58.604 24.0032 58.9478 24.1471 59.2014 24.4032C59.4549 24.6593 59.5973 25.0066 59.5973 25.3688C59.5973 25.731 59.4549 26.0783 59.2014 26.3344C58.9478 26.5905 58.604 26.7344 58.2455 26.7344Z" fill="#6532AD"/>
<path d="M39.1374 9.73781C41.21 9.38185 42.6046 7.39597 42.2522 5.30223C41.8998 3.20849 39.934 1.79975 37.8613 2.15571C35.7886 2.51167 34.3941 4.49754 34.7464 6.59128C35.0988 8.68502 37.0647 10.0938 39.1374 9.73781Z" fill="#FFB6B6"/>
<path d="M62.0637 42.735L57.7644 33.5673L57.8226 33.5395C58.1206 33.3969 58.4434 33.315 58.7727 33.2984C59.1019 33.2819 59.4312 33.331 59.7417 33.443C60.0522 33.555 60.3378 33.7277 60.5822 33.9512C60.8266 34.1747 61.0251 34.4446 61.1662 34.7456L63.3158 39.3295C63.457 39.6305 63.5381 39.9566 63.5545 40.2892C63.5709 40.6218 63.5223 40.9545 63.4114 41.2681C63.3005 41.5818 63.1296 41.8703 62.9083 42.1172C62.687 42.3641 62.4198 42.5645 62.1219 42.7071L62.0637 42.735Z" fill="#3F3D56"/>
<path d="M48.921 44.3469C48.3797 44.3454 47.8533 44.1676 47.4201 43.8397C46.9869 43.5119 46.67 43.0516 46.5165 42.5273L46.4983 42.4649L56.13 39.5941L56.1482 39.6565C56.2415 39.9759 56.2717 40.3108 56.2369 40.642C56.202 40.9731 56.103 41.2942 55.9454 41.5867C55.7878 41.8792 55.5746 42.1375 55.3182 42.3468C55.0617 42.5561 54.767 42.7123 54.4508 42.8066L49.6349 44.2419C49.4031 44.3113 49.1627 44.3466 48.921 44.3469Z" fill="#3F3D56"/>
<path d="M50.1578 60.1456L51.9104 59.7089L51.1002 52.5172L48.5134 53.162L50.1578 60.1456Z" fill="#FFB6B6"/>
<path d="M49.3289 58.0828L52.0641 56.7955L52.5384 58.0079L55.9287 58.8026C56.0961 58.8418 56.2468 58.9341 56.3586 59.0659C56.4705 59.1978 56.5377 59.3623 56.5505 59.5354C56.5632 59.7086 56.5208 59.8813 56.4295 60.0284C56.3382 60.1756 56.2027 60.2893 56.0428 60.3531L52.7078 61.6847L51.6637 60.715L51.9085 62.0038L50.6511 62.5059L49.3289 58.0828Z" fill="#2F2E41"/>
<path d="M52.0089 53.6652L48.2719 55.929L44.2862 41.7098C37.8205 41.6541 31.8421 40.9228 26.961 38.6705C25.3073 37.9141 24.5717 35.9136 25.318 34.2024C25.3528 34.1224 25.3907 34.0438 25.4315 33.9667C26.3816 32.1911 28.2237 31.1484 29.8582 29.303L37.9661 32.327L37.3851 34.5325L46.5566 34.9976C48.401 35.0911 49.8111 36.7095 49.7062 38.6123C49.7006 38.7127 49.6909 38.8129 49.6768 38.9126L52.0089 53.6652Z" fill="#2F2E41"/>
<path d="M36.1564 9.7005L38.648 11.0166C38.7857 11.0721 38.9028 11.1696 38.983 11.2955C39.0632 11.4214 39.1025 11.5694 39.0955 11.7189L39.7445 14.3424L42.0281 19.2251C42.0281 19.2251 42.6231 21.8238 41.4876 24.2774C40.352 26.731 37.8389 32.8474 37.8389 32.8474C36.1998 36.8133 22.7456 33.7507 26.2517 30.3764C26.6689 29.9748 29.0137 26.5835 29.8716 26.3886L31.9767 14.2198C32.0828 13.5774 32.3284 12.9666 32.6957 12.4313C33.0631 11.896 33.5431 11.4494 34.1014 11.1236C34.4387 10.931 34.7514 10.817 34.9656 10.8752C35.454 10.9902 35.6848 9.87286 36.1564 9.7005Z" fill="#6532AD"/>
<path d="M57.7953 25.8247C57.5687 25.9548 57.3167 26.033 57.0569 26.054C56.7972 26.075 56.536 26.0382 56.2919 25.9462C56.0477 25.8542 55.8265 25.7093 55.6438 25.5216C55.4611 25.3339 55.3214 25.108 55.2345 24.8599L40.8885 23.8798L42.6838 21.0929L56.4353 22.5022C56.8577 22.3823 57.3089 22.4231 57.7035 22.6168C58.0981 22.8105 58.4086 23.1437 58.5762 23.5533C58.7439 23.9628 58.757 24.4203 58.613 24.8389C58.4691 25.2576 58.1781 25.6083 57.7953 25.8247Z" fill="#FFB6B6"/>
<path d="M33.9468 13.2123C33.9468 13.2123 31.7692 13.8924 32.2879 16.4757C32.8065 19.0591 39.3528 23.9326 40.3847 24.75C41.4165 25.5674 50.0034 24.4656 50.0034 24.4656L52.2216 21.6084L43.8587 20.4138L33.9468 13.2123Z" fill="#6532AD"/>
<path d="M42.561 4.67466C41.9862 4.9607 41.3353 4.54612 40.8324 4.13383L41.0124 4.28761C40.1398 5.16305 39.7404 6.41365 39.5515 7.64262C39.3624 8.8703 39.3527 10.1239 39.1113 11.3434C38.8697 12.5617 38.3553 13.7885 37.3788 14.5432C36.0706 15.5542 34.2517 15.5091 32.6307 15.2202C32.6091 15.216 32.589 15.2128 32.5674 15.2086C32.9898 13.9344 33.1531 12.5872 33.0474 11.2477C32.6274 12.5955 31.9016 13.8255 30.9278 14.8398C29.8521 14.5528 28.8011 14.1783 27.7853 13.72C27.128 13.4226 26.4193 13.014 26.2305 12.3116C26.0414 11.6145 26.4566 10.877 27.0173 10.4298C27.5781 9.9826 28.2694 9.74513 28.9101 9.42402C29.5498 9.10441 30.1814 8.65163 30.432 7.97537C31.0099 6.41971 29.3005 4.65925 29.9441 3.12924C30.2615 2.37686 31.0535 1.96118 31.7986 1.6393C32.936 1.14919 34.1049 0.737324 35.2973 0.406506C36.3441 0.115913 37.4379 -0.112823 38.509 0.059409C39.5801 0.23164 40.6344 0.877726 41.0296 1.89951C41.674 2.11206 42.3582 2.35206 42.7759 2.89376C43.1933 3.43418 43.1696 4.37225 42.561 4.67466Z" fill="#2F2E41"/>
<path d="M63.157 39.4752C63.924 39.1888 64.1959 38.0008 63.7645 36.8218C63.333 35.6428 62.3615 34.9192 61.5945 35.2057C60.8276 35.4921 60.5556 36.68 60.987 37.859C61.4185 39.038 62.39 39.7616 63.157 39.4752Z" fill="#6532AD"/>
</svg>
