<svg width="60" height="60" viewBox="0 0 60 60" fill="none" xmlns="http://www.w3.org/2000/svg">
<rect width="60" height="60" rx="20" fill="white"/>
<path fill-rule="evenodd" clip-rule="evenodd" d="M30.0001 42C31.576 42 33.1364 41.6896 34.5923 41.0866C36.0482 40.4835 37.3711 39.5996 38.4854 38.4853C39.5997 37.371 40.4836 36.0481 41.0867 34.5922C41.6897 33.1363 42.0001 31.5759 42.0001 30C42.0001 28.4241 41.6897 26.8637 41.0867 25.4078C40.4836 23.9519 39.5997 22.629 38.4854 21.5147C37.3711 20.4004 36.0482 19.5165 34.5923 18.9134C33.1364 18.3104 31.576 18 30.0001 18C26.8175 18 23.7653 19.2643 21.5148 21.5147C19.2644 23.7652 18.0001 26.8174 18.0001 30C18.0001 33.1826 19.2644 36.2348 21.5148 38.4853C23.7653 40.7357 26.8175 42 30.0001 42ZM29.6908 34.8533L36.3575 26.8533L34.3095 25.1467L28.5761 32.0253L25.6095 29.0573L23.7241 30.9427L27.7241 34.9427L28.7561 35.9747L29.6908 34.8533Z" fill="#684DF0"/>
</svg>
