<svg width="32" height="32" viewBox="0 0 32 32" fill="none" xmlns="http://www.w3.org/2000/svg">
<path fill-rule="evenodd" clip-rule="evenodd" d="M16.0001 28C17.576 28 19.1364 27.6896 20.5923 27.0866C22.0482 26.4835 23.3711 25.5996 24.4854 24.4853C25.5997 23.371 26.4836 22.0481 27.0867 20.5922C27.6897 19.1363 28.0001 17.5759 28.0001 16C28.0001 14.4241 27.6897 12.8637 27.0867 11.4078C26.4836 9.95189 25.5997 8.62902 24.4854 7.51472C23.3711 6.40042 22.0482 5.5165 20.5923 4.91345C19.1364 4.31039 17.576 4 16.0001 4C12.8175 4 9.76528 5.26428 7.51484 7.51472C5.2644 9.76515 4.00012 12.8174 4.00012 16C4.00012 19.1826 5.2644 22.2348 7.51484 24.4853C9.76528 26.7357 12.8175 28 16.0001 28ZM15.6908 20.8533L22.3575 12.8533L20.3095 11.1467L14.5761 18.0253L11.6095 15.0573L9.72412 16.9427L13.7241 20.9427L14.7561 21.9747L15.6908 20.8533Z" fill="#684DF0"/>
</svg>
