<svg width="271" height="93" viewBox="0 0 271 93" fill="none" xmlns="http://www.w3.org/2000/svg">
<path d="M8.24072 2H42.1157C48.8657 2 54.6366 3.27083 59.4282 5.8125C64.2616 8.35417 67.9074 11.8958 70.3657 16.4375C72.8241 20.9375 74.0532 26.125 74.0532 32C74.0532 37.8333 72.8032 43 70.3032 47.5C67.8032 51.9583 64.1366 55.4792 59.3032 58.0625C54.5116 60.6042 48.6991 61.875 41.8657 61.875H19.3657V48.4375H39.6782C43.6782 48.4375 46.9907 47.75 49.6157 46.375C52.2824 44.9583 54.2407 43.0208 55.4907 40.5625C56.7824 38.1042 57.4282 35.25 57.4282 32C57.4282 28.6667 56.7824 25.7917 55.4907 23.375C54.2407 20.9167 52.2824 19.0208 49.6157 17.6875C46.9491 16.3125 43.6157 15.625 39.6157 15.625H24.4907V92.5H8.24072V2Z" fill="#1D2939"/>
<ellipse cx="101.803" cy="15" rx="12" ry="15" fill="url(#paint0_linear_2024_3754)"/>
<path d="M89.8032 49C89.8032 44.5817 93.3849 41 97.8032 41H105.803C110.222 41 113.803 44.5817 113.803 49V84C113.803 88.4183 110.222 92 105.803 92H97.8032C93.3849 92 89.8032 88.4183 89.8032 84V49Z" fill="url(#paint1_linear_2024_3754)"/>
<path d="M134.08 84.4956C134.148 88.9134 137.811 92.5104 142.151 91.6795C151.369 89.9144 159.896 85.3554 166.52 78.5266C175.014 69.7693 179.681 57.9964 179.495 45.7979C179.308 33.5993 174.284 21.9744 165.527 13.4804C158.698 6.85699 150.036 2.56043 140.768 1.07754C136.405 0.379488 132.853 4.08668 132.92 8.50444L132.981 12.4864C133.048 16.9041 136.764 20.3125 140.995 21.5854C144.947 22.7744 148.597 24.8977 151.614 27.8241C156.567 32.6283 159.409 39.2034 159.515 46.1029C159.62 53.0024 156.98 59.6611 152.176 64.6143C149.25 67.6314 145.666 69.8652 141.752 71.1742C137.562 72.5757 133.952 76.0959 134.019 80.5137L134.08 84.4956Z" fill="url(#paint2_linear_2024_3754)"/>
<path d="M196.634 2H212.884V43.6875H214.072L249.384 2H269.384L234.259 42.625L269.697 92.5H250.009L222.947 53.625L212.884 65.5625V92.5H196.634V2Z" fill="#1D2939"/>
<defs>
<linearGradient id="paint0_linear_2024_3754" x1="101.803" y1="0" x2="101.803" y2="30" gradientUnits="userSpaceOnUse">
<stop stop-color="#9650FA"/>
<stop offset="1" stop-color="#535EC6"/>
</linearGradient>
<linearGradient id="paint1_linear_2024_3754" x1="101.803" y1="41" x2="101.803" y2="92" gradientUnits="userSpaceOnUse">
<stop stop-color="#9650FA"/>
<stop offset="1" stop-color="#535EC6"/>
</linearGradient>
<linearGradient id="paint2_linear_2024_3754" x1="179.495" y1="45.7979" x2="87.5054" y2="47.2022" gradientUnits="userSpaceOnUse">
<stop stop-color="#9650FA"/>
<stop offset="1" stop-color="#535EC6"/>
</linearGradient>
</defs>
</svg>
